# MagicaVoxel @ Ephtracy

# group
o 

# material
mtllib flag.mtl
usemtl palette

# normals
vn -1 0 0
vn 1 0 0
vn 0 0 1
vn 0 0 -1
vn 0 -1 0
vn 0 1 0

# texcoords
vt 0.0917969 0.5
vt 0.279297 0.5

# verts
v -0.1 0 0.1
v -0.1 0 -1.49012e-08
v -0.1 0.5 0.1
v -0.1 0.5 -1.49012e-08
v -0.1 1 0.1
v -0.1 1 -1.49012e-08
v 1.49012e-08 0 0.1
v 1.49012e-08 0 -1.49012e-08
v 1.49012e-08 0.5 0.1
v 1.49012e-08 0.5 -1.49012e-08
v 0.3 0.5 0.1
v 0.3 0.5 -1.49012e-08
v 0.3 0.6 0.1
v 0.3 0.6 -1.49012e-08
v 0.4 0.9 0.1
v 0.4 0.9 -1.49012e-08
v 0.4 1 0.1
v 0.4 1 -1.49012e-08
v 0.5 0.6 0.1
v 0.5 0.6 -1.49012e-08
v 0.5 0.9 0.1
v 0.5 0.9 -1.49012e-08
v -0.1 0 0.1
v -0.1 0.5 0.1
v -0.1 1 0.1
v 1.49012e-08 0 0.1
v 1.49012e-08 0.5 0.1
v 0.3 0.5 0.1
v 0.3 0.6 0.1
v 0.4 0.9 0.1
v 0.4 1 0.1
v 0.5 0.6 0.1
v 0.5 0.9 0.1
v -0.1 0 -1.49012e-08
v -0.1 0.5 -1.49012e-08
v -0.1 1 -1.49012e-08
v 1.49012e-08 0 -1.49012e-08
v 1.49012e-08 0.5 -1.49012e-08
v 0.3 0.5 -1.49012e-08
v 0.3 0.6 -1.49012e-08
v 0.4 0.9 -1.49012e-08
v 0.4 1 -1.49012e-08
v 0.5 0.6 -1.49012e-08
v 0.5 0.9 -1.49012e-08
v -0.1 0 0.1
v 1.49012e-08 0 0.1
v -0.1 0 -1.49012e-08
v 1.49012e-08 0 -1.49012e-08
v 1.49012e-08 0.5 0.1
v 0.3 0.5 0.1
v 1.49012e-08 0.5 -1.49012e-08
v 0.3 0.5 -1.49012e-08
v 0.3 0.6 0.1
v 0.5 0.6 0.1
v 0.3 0.6 -1.49012e-08
v 0.5 0.6 -1.49012e-08
v 0.4 0.9 0.1
v 0.5 0.9 0.1
v 0.4 0.9 -1.49012e-08
v 0.5 0.9 -1.49012e-08
v -0.1 1 0.1
v 0.4 1 0.1
v -0.1 1 -1.49012e-08
v 0.4 1 -1.49012e-08

# faces
f 3/1/1 2/1/1 1/1/1
f 4/1/1 2/1/1 3/1/1
f 5/2/1 4/2/1 3/2/1
f 6/2/1 4/2/1 5/2/1
f 7/1/2 8/1/2 9/1/2
f 9/1/2 8/1/2 10/1/2
f 11/2/2 12/2/2 13/2/2
f 13/2/2 12/2/2 14/2/2
f 15/2/2 16/2/2 17/2/2
f 17/2/2 16/2/2 18/2/2
f 19/2/2 20/2/2 21/2/2
f 21/2/2 20/2/2 22/2/2
f 26/1/3 24/1/3 23/1/3
f 27/2/3 25/2/3 24/2/3
f 27/1/3 24/1/3 26/1/3
f 28/2/3 25/2/3 27/2/3
f 29/2/3 25/2/3 28/2/3
f 30/2/3 25/2/3 29/2/3
f 31/2/3 25/2/3 30/2/3
f 32/2/3 30/2/3 29/2/3
f 33/2/3 30/2/3 32/2/3
f 34/1/4 35/1/4 37/1/4
f 35/2/4 36/2/4 38/2/4
f 37/1/4 35/1/4 38/1/4
f 38/2/4 36/2/4 39/2/4
f 39/2/4 36/2/4 40/2/4
f 40/2/4 36/2/4 41/2/4
f 41/2/4 36/2/4 42/2/4
f 40/2/4 41/2/4 43/2/4
f 43/2/4 41/2/4 44/2/4
f 47/1/5 46/1/5 45/1/5
f 48/1/5 46/1/5 47/1/5
f 51/2/5 50/2/5 49/2/5
f 52/2/5 50/2/5 51/2/5
f 55/2/5 54/2/5 53/2/5
f 56/2/5 54/2/5 55/2/5
f 57/2/6 58/2/6 59/2/6
f 59/2/6 58/2/6 60/2/6
f 61/2/6 62/2/6 63/2/6
f 63/2/6 62/2/6 64/2/6
