# MagicaVoxel @ Ephtracy

# group
o 

# material
mtllib Monster.mtl
usemtl palette

# normals
vn -1 0 0
vn 1 0 0
vn 0 0 1
vn 0 0 -1
vn 0 -1 0
vn 0 1 0

# texcoords
vt 0.771484 0.5
vt 0.896484 0.5
vt 0.982422 0.5
vt 0.986328 0.5
vt 0.994141 0.5

# verts
v -0.5 0 0.5
v -0.5 0 -0.5
v -0.5 0.1 0.4
v -0.5 0.1 -0.4
v -0.5 0.3 0.4
v -0.5 0.3 -0.4
v -0.5 0.4 0.5
v -0.5 0.4 -0.5
v -0.4 0.4 0.3
v -0.4 0.4 -0.3
v -0.4 0.5 0.3
v -0.4 0.5 -0.3
v -0.3 0.3 -0.3
v -0.3 0.3 -0.4
v -0.3 0.4 -0.3
v -0.3 0.4 -0.4
v -0.3 0.5 0.2
v -0.3 0.5 -0.2
v -0.3 0.6 0.2
v -0.3 0.6 -0.2
v -0.2 0.4 0.4
v -0.2 0.4 0.3
v -0.2 0.5 0.4
v -0.2 0.5 0.3
v -0.2 0.6 0.1
v -0.2 0.6 -0.1
v -0.2 0.7 0.3
v -0.2 0.7 0.1
v -0.2 0.8 0.3
v -0.2 0.8 0.1
v -0.2 0.8 -0.1
v -0.1 0.6 0.3
v -0.1 0.6 0.2
v -0.1 0.6 0.1
v -0.1 0.7 0.3
v -0.1 0.7 0.1
v -0.1 0.8 0.3
v -0.1 0.8 0.1
v -0.1 0.9 0.3
v -0.1 0.9 0.1
v 0.1 0.7 0.3
v 0.1 0.7 0.2
v 0.1 0.8 0.3
v 0.1 0.8 0.2
v 0.4 0.3 -0.3
v 0.4 0.3 -0.4
v 0.4 0.3 -0.5
v 0.4 0.4 -0.3
v 0.4 0.4 -0.5
v -0.4 0.3 -0.3
v -0.4 0.3 -0.4
v -0.4 0.3 -0.5
v -0.4 0.4 -0.3
v -0.4 0.4 -0.5
v -0.1 0.7 0.3
v -0.1 0.7 0.2
v -0.1 0.8 0.3
v -0.1 0.8 0.2
v 0.1 0.6 0.3
v 0.1 0.6 0.2
v 0.1 0.6 0.1
v 0.1 0.7 0.3
v 0.1 0.7 0.1
v 0.1 0.8 0.3
v 0.1 0.8 0.1
v 0.1 0.9 0.3
v 0.1 0.9 0.1
v 0.2 0.4 0.4
v 0.2 0.4 0.3
v 0.2 0.5 0.4
v 0.2 0.5 0.3
v 0.2 0.6 0.1
v 0.2 0.6 -0.1
v 0.2 0.7 0.3
v 0.2 0.7 0.1
v 0.2 0.8 0.3
v 0.2 0.8 0.1
v 0.2 0.8 -0.1
v 0.3 0.3 -0.3
v 0.3 0.3 -0.4
v 0.3 0.4 -0.3
v 0.3 0.4 -0.4
v 0.3 0.5 0.2
v 0.3 0.5 -0.2
v 0.3 0.6 0.2
v 0.3 0.6 -0.2
v 0.4 0.4 0.3
v 0.4 0.4 -0.3
v 0.4 0.5 0.3
v 0.4 0.5 -0.3
v 0.5 0 0.5
v 0.5 0 -0.5
v 0.5 0.1 0.4
v 0.5 0.1 -0.4
v 0.5 0.3 0.4
v 0.5 0.3 -0.4
v 0.5 0.4 0.5
v 0.5 0.4 -0.5
v -0.5 0 0.5
v -0.5 0.4 0.5
v -0.4 0 0.5
v -0.4 0.4 0.5
v -0.2 0.1 0.5
v -0.2 0.3 0.5
v 0.2 0.1 0.5
v 0.2 0.3 0.5
v 0.4 0 0.5
v 0.4 0.4 0.5
v 0.5 0 0.5
v 0.5 0.4 0.5
v -0.2 0.4 0.4
v -0.2 0.5 0.4
v 0.2 0.4 0.4
v 0.2 0.5 0.4
v -0.4 0.4 0.3
v -0.4 0.5 0.3
v -0.2 0.4 0.3
v -0.2 0.5 0.3
v -0.2 0.7 0.3
v -0.2 0.8 0.3
v -0.1 0.6 0.3
v -0.1 0.7 0.3
v -0.1 0.8 0.3
v -0.1 0.9 0.3
v 0.1 0.6 0.3
v 0.1 0.7 0.3
v 0.1 0.8 0.3
v 0.1 0.9 0.3
v 0.2 0.4 0.3
v 0.2 0.5 0.3
v 0.2 0.7 0.3
v 0.2 0.8 0.3
v 0.4 0.4 0.3
v 0.4 0.5 0.3
v -0.3 0.5 0.2
v -0.3 0.6 0.2
v -0.1 0.6 0.2
v -0.1 0.7 0.2
v -0.1 0.8 0.2
v 0.1 0.6 0.2
v 0.1 0.7 0.2
v 0.1 0.8 0.2
v 0.3 0.5 0.2
v 0.3 0.6 0.2
v -0.2 0.6 0.1
v -0.2 0.7 0.1
v -0.1 0.6 0.1
v -0.1 0.7 0.1
v 0.1 0.6 0.1
v 0.1 0.7 0.1
v 0.2 0.6 0.1
v 0.2 0.7 0.1
v -0.1 0.8 0.1
v -0.1 0.9 0.1
v 0.1 0.8 0.1
v 0.1 0.9 0.1
v -0.2 0.6 -0.1
v -0.2 0.8 -0.1
v -0.1 0.6 -0.1
v -0.1 0.8 -0.1
v 0.1 0.6 -0.1
v 0.1 0.8 -0.1
v 0.2 0.6 -0.1
v 0.2 0.8 -0.1
v -0.3 0.5 -0.2
v -0.3 0.6 -0.2
v 0.3 0.5 -0.2
v 0.3 0.6 -0.2
v -0.4 0.3 -0.3
v -0.4 0.4 -0.3
v -0.4 0.5 -0.3
v -0.3 0.3 -0.3
v -0.3 0.4 -0.3
v 0.3 0.3 -0.3
v 0.3 0.4 -0.3
v 0.4 0.3 -0.3
v 0.4 0.4 -0.3
v 0.4 0.5 -0.3
v -0.3 0.3 -0.4
v -0.3 0.4 -0.4
v 0.3 0.3 -0.4
v 0.3 0.4 -0.4
v -0.5 0 -0.5
v -0.5 0.4 -0.5
v -0.4 0.3 -0.5
v -0.4 0.4 -0.5
v 0.4 0.3 -0.5
v 0.4 0.4 -0.5
v 0.5 0 -0.5
v 0.5 0.4 -0.5
v -0.5 0 0.5
v -0.4 0 0.5
v 0.4 0 0.5
v 0.5 0 0.5
v -0.4 0 -0.4
v 0.4 0 -0.4
v -0.5 0 -0.5
v 0.5 0 -0.5
v -0.1 0.6 0.3
v 0.1 0.6 0.3
v -0.1 0.6 0.2
v 0.1 0.6 0.2
v -0.2 0.7 0.3
v -0.1 0.7 0.3
v 0.1 0.7 0.3
v 0.2 0.7 0.3
v -0.2 0.7 0.1
v -0.1 0.7 0.1
v 0.1 0.7 0.1
v 0.2 0.7 0.1
v -0.1 0.8 0.3
v 0.1 0.8 0.3
v -0.1 0.8 0.2
v 0.1 0.8 0.2
v -0.4 0.3 -0.3
v -0.3 0.3 -0.3
v 0.3 0.3 -0.3
v 0.4 0.3 -0.3
v -0.4 0.3 -0.4
v -0.3 0.3 -0.4
v 0.3 0.3 -0.4
v 0.4 0.3 -0.4
v -0.4 0.3 -0.5
v 0.4 0.3 -0.5
v -0.5 0.4 0.5
v -0.4 0.4 0.5
v 0.4 0.4 0.5
v 0.5 0.4 0.5
v -0.2 0.4 0.4
v 0.2 0.4 0.4
v -0.4 0.4 0.3
v -0.2 0.4 0.3
v 0.2 0.4 0.3
v 0.4 0.4 0.3
v -0.4 0.4 -0.3
v -0.3 0.4 -0.3
v 0.3 0.4 -0.3
v 0.4 0.4 -0.3
v -0.3 0.4 -0.4
v 0.3 0.4 -0.4
v -0.5 0.4 -0.5
v -0.4 0.4 -0.5
v 0.4 0.4 -0.5
v 0.5 0.4 -0.5
v -0.2 0.5 0.4
v 0.2 0.5 0.4
v -0.4 0.5 0.3
v -0.2 0.5 0.3
v 0.2 0.5 0.3
v 0.4 0.5 0.3
v -0.3 0.5 0.2
v 0.3 0.5 0.2
v -0.3 0.5 -0.2
v 0.3 0.5 -0.2
v -0.4 0.5 -0.3
v 0.4 0.5 -0.3
v -0.3 0.6 0.2
v -0.1 0.6 0.2
v 0.1 0.6 0.2
v 0.3 0.6 0.2
v -0.2 0.6 0.1
v -0.1 0.6 0.1
v 0.1 0.6 0.1
v 0.2 0.6 0.1
v -0.2 0.6 -0.1
v -0.1 0.6 -0.1
v 0.1 0.6 -0.1
v 0.2 0.6 -0.1
v -0.3 0.6 -0.2
v 0.3 0.6 -0.2
v -0.1 0.7 0.3
v 0.1 0.7 0.3
v -0.1 0.7 0.2
v 0.1 0.7 0.2
v -0.2 0.8 0.3
v -0.1 0.8 0.3
v 0.1 0.8 0.3
v 0.2 0.8 0.3
v -0.2 0.8 0.1
v -0.1 0.8 0.1
v 0.1 0.8 0.1
v 0.2 0.8 0.1
v -0.2 0.8 -0.1
v -0.1 0.8 -0.1
v 0.1 0.8 -0.1
v 0.2 0.8 -0.1
v -0.1 0.9 0.3
v 0.1 0.9 0.3
v -0.1 0.9 0.1
v 0.1 0.9 0.1

# faces
f 3/3/1 2/3/1 1/3/1
f 4/3/1 2/3/1 3/3/1
f 5/3/1 3/3/1 1/3/1
f 5/1/1 4/1/1 3/1/1
f 6/3/1 2/3/1 4/3/1
f 6/1/1 4/1/1 5/1/1
f 7/3/1 5/3/1 1/3/1
f 7/3/1 6/3/1 5/3/1
f 8/3/1 2/3/1 6/3/1
f 8/3/1 6/3/1 7/3/1
f 11/1/1 10/1/1 9/1/1
f 12/1/1 10/1/1 11/1/1
f 15/1/1 14/1/1 13/1/1
f 16/1/1 14/1/1 15/1/1
f 19/1/1 18/1/1 17/1/1
f 20/1/1 18/1/1 19/1/1
f 23/1/1 22/1/1 21/1/1
f 24/1/1 22/1/1 23/1/1
f 28/2/1 26/2/1 25/2/1
f 29/4/1 28/4/1 27/4/1
f 30/2/1 26/2/1 28/2/1
f 30/4/1 28/4/1 29/4/1
f 31/2/1 26/2/1 30/2/1
f 35/4/1 33/4/1 32/4/1
f 35/4/1 34/4/1 33/4/1
f 36/4/1 34/4/1 35/4/1
f 39/4/1 38/4/1 37/4/1
f 40/4/1 38/4/1 39/4/1
f 43/4/1 42/4/1 41/4/1
f 44/4/1 42/4/1 43/4/1
f 48/3/1 46/3/1 45/3/1
f 48/3/1 47/3/1 46/3/1
f 49/3/1 47/3/1 48/3/1
f 50/3/2 51/3/2 53/3/2
f 51/3/2 52/3/2 53/3/2
f 53/3/2 52/3/2 54/3/2
f 55/4/2 56/4/2 57/4/2
f 57/4/2 56/4/2 58/4/2
f 59/4/2 60/4/2 62/4/2
f 60/4/2 61/4/2 62/4/2
f 62/4/2 61/4/2 63/4/2
f 64/4/2 65/4/2 66/4/2
f 66/4/2 65/4/2 67/4/2
f 68/1/2 69/1/2 70/1/2
f 70/1/2 69/1/2 71/1/2
f 72/2/2 73/2/2 75/2/2
f 74/4/2 75/4/2 76/4/2
f 75/2/2 73/2/2 77/2/2
f 76/4/2 75/4/2 77/4/2
f 77/2/2 73/2/2 78/2/2
f 79/1/2 80/1/2 81/1/2
f 81/1/2 80/1/2 82/1/2
f 83/1/2 84/1/2 85/1/2
f 85/1/2 84/1/2 86/1/2
f 87/1/2 88/1/2 89/1/2
f 89/1/2 88/1/2 90/1/2
f 91/3/2 92/3/2 93/3/2
f 93/3/2 92/3/2 94/3/2
f 91/3/2 93/3/2 95/3/2
f 93/1/2 94/1/2 95/1/2
f 94/3/2 92/3/2 96/3/2
f 95/1/2 94/1/2 96/1/2
f 91/3/2 95/3/2 97/3/2
f 95/3/2 96/3/2 97/3/2
f 96/3/2 92/3/2 98/3/2
f 97/3/2 96/3/2 98/3/2
f 101/3/3 100/3/3 99/3/3
f 102/3/3 100/3/3 101/3/3
f 103/1/3 102/1/3 101/1/3
f 104/1/3 102/1/3 103/1/3
f 105/1/3 103/1/3 101/1/3
f 105/5/3 104/5/3 103/5/3
f 106/1/3 102/1/3 104/1/3
f 106/5/3 104/5/3 105/5/3
f 107/1/3 105/1/3 101/1/3
f 107/1/3 106/1/3 105/1/3
f 108/1/3 102/1/3 106/1/3
f 108/1/3 106/1/3 107/1/3
f 109/3/3 108/3/3 107/3/3
f 110/3/3 108/3/3 109/3/3
f 113/1/3 112/1/3 111/1/3
f 114/1/3 112/1/3 113/1/3
f 117/1/3 116/1/3 115/1/3
f 118/1/3 116/1/3 117/1/3
f 122/4/3 120/4/3 119/4/3
f 123/4/3 120/4/3 122/4/3
f 125/4/3 122/4/3 121/4/3
f 126/4/3 122/4/3 125/4/3
f 127/4/3 124/4/3 123/4/3
f 128/4/3 124/4/3 127/4/3
f 131/4/3 127/4/3 126/4/3
f 132/4/3 127/4/3 131/4/3
f 133/1/3 130/1/3 129/1/3
f 134/1/3 130/1/3 133/1/3
f 137/1/3 136/1/3 135/1/3
f 140/1/3 137/1/3 135/1/3
f 141/4/3 139/4/3 138/4/3
f 142/4/3 139/4/3 141/4/3
f 143/1/3 140/1/3 135/1/3
f 144/1/3 140/1/3 143/1/3
f 147/2/3 146/2/3 145/2/3
f 148/2/3 146/2/3 147/2/3
f 151/2/3 150/2/3 149/2/3
f 152/2/3 150/2/3 151/2/3
f 153/4/4 154/4/4 155/4/4
f 155/4/4 154/4/4 156/4/4
f 157/2/4 158/2/4 159/2/4
f 159/2/4 158/2/4 160/2/4
f 159/1/4 160/1/4 161/1/4
f 161/1/4 160/1/4 162/1/4
f 161/2/4 162/2/4 163/2/4
f 163/2/4 162/2/4 164/2/4
f 165/1/4 166/1/4 167/1/4
f 167/1/4 166/1/4 168/1/4
f 169/1/4 170/1/4 172/1/4
f 170/1/4 171/1/4 172/1/4
f 172/1/4 171/1/4 173/1/4
f 173/1/4 171/1/4 175/1/4
f 174/1/4 175/1/4 176/1/4
f 175/1/4 171/1/4 177/1/4
f 176/1/4 175/1/4 177/1/4
f 177/1/4 171/1/4 178/1/4
f 179/1/4 180/1/4 181/1/4
f 181/1/4 180/1/4 182/1/4
f 183/3/4 184/3/4 185/3/4
f 185/3/4 184/3/4 186/3/4
f 183/3/4 185/3/4 187/3/4
f 183/3/4 187/3/4 189/3/4
f 187/3/4 188/3/4 189/3/4
f 189/3/4 188/3/4 190/3/4
f 195/3/5 192/3/5 191/3/5
f 195/1/5 193/1/5 192/1/5
f 196/3/5 194/3/5 193/3/5
f 196/1/5 193/1/5 195/1/5
f 197/3/5 195/3/5 191/3/5
f 197/3/5 196/3/5 195/3/5
f 198/3/5 194/3/5 196/3/5
f 198/3/5 196/3/5 197/3/5
f 201/4/5 200/4/5 199/4/5
f 202/4/5 200/4/5 201/4/5
f 207/4/5 204/4/5 203/4/5
f 208/4/5 204/4/5 207/4/5
f 209/4/5 206/4/5 205/4/5
f 210/4/5 206/4/5 209/4/5
f 213/4/5 212/4/5 211/4/5
f 214/4/5 212/4/5 213/4/5
f 215/1/6 216/1/6 219/1/6
f 219/1/6 216/1/6 220/1/6
f 217/1/6 218/1/6 221/1/6
f 221/1/6 218/1/6 222/1/6
f 219/3/6 220/3/6 223/3/6
f 220/3/6 221/3/6 223/3/6
f 221/3/6 222/3/6 223/3/6
f 223/3/6 222/3/6 224/3/6
f 226/1/6 227/1/6 229/1/6
f 229/1/6 227/1/6 230/1/6
f 225/3/6 226/3/6 231/3/6
f 226/1/6 229/1/6 231/1/6
f 231/1/6 229/1/6 232/1/6
f 230/1/6 227/1/6 233/1/6
f 227/3/6 228/3/6 234/3/6
f 233/1/6 227/1/6 234/1/6
f 225/3/6 231/3/6 235/3/6
f 234/3/6 228/3/6 238/3/6
f 236/1/6 237/1/6 239/1/6
f 239/1/6 237/1/6 240/1/6
f 225/3/6 235/3/6 241/3/6
f 241/3/6 235/3/6 242/3/6
f 238/3/6 228/3/6 243/3/6
f 243/3/6 228/3/6 244/3/6
f 245/1/6 246/1/6 248/1/6
f 248/1/6 246/1/6 249/1/6
f 247/1/6 248/1/6 251/1/6
f 249/1/6 250/1/6 251/1/6
f 248/1/6 249/1/6 251/1/6
f 251/1/6 250/1/6 252/1/6
f 247/1/6 251/1/6 253/1/6
f 252/1/6 250/1/6 254/1/6
f 247/1/6 253/1/6 255/1/6
f 253/1/6 254/1/6 255/1/6
f 254/1/6 250/1/6 256/1/6
f 255/1/6 254/1/6 256/1/6
f 257/1/6 258/1/6 261/1/6
f 261/1/6 258/1/6 262/1/6
f 259/1/6 260/1/6 263/1/6
f 263/1/6 260/1/6 264/1/6
f 257/1/6 261/1/6 265/1/6
f 264/1/6 260/1/6 268/1/6
f 266/1/6 267/1/6 269/1/6
f 267/1/6 268/1/6 269/1/6
f 257/1/6 265/1/6 269/1/6
f 265/1/6 266/1/6 269/1/6
f 268/1/6 260/1/6 270/1/6
f 269/1/6 268/1/6 270/1/6
f 271/4/6 272/4/6 273/4/6
f 273/4/6 272/4/6 274/4/6
f 275/4/6 276/4/6 279/4/6
f 279/4/6 276/4/6 280/4/6
f 277/4/6 278/4/6 281/4/6
f 281/4/6 278/4/6 282/4/6
f 279/2/6 280/2/6 283/2/6
f 280/1/6 281/1/6 284/1/6
f 283/2/6 280/2/6 284/2/6
f 281/2/6 282/2/6 285/2/6
f 284/1/6 281/1/6 285/1/6
f 285/2/6 282/2/6 286/2/6
f 287/4/6 288/4/6 289/4/6
f 289/4/6 288/4/6 290/4/6
