# MagicaVoxel @ Ephtracy

# group
o 

# material
mtllib Tile_001.mtl
usemtl palette

# normals
vn -1 0 0
vn 1 0 0
vn 0 0 1
vn 0 0 -1
vn 0 -1 0
vn 0 1 0

# texcoords
vt 0.212891 0.5
vt 0.306641 0.5
vt 0.396484 0.5
vt 0.537109 0.5
vt 0.900391 0.5
vt 0.904297 0.5

# verts
v -0.5 0 0.5
v -0.5 0 -0.5
v -0.5 0.1 0
v -0.5 0.1 -0.1
v -0.5 0.2 0
v -0.5 0.2 -0.1
v -0.5 0.2 -0.2
v -0.5 0.2 -0.4
v -0.5 0.3 0.4
v -0.5 0.3 0.3
v -0.5 0.3 -0.2
v -0.5 0.3 -0.4
v -0.5 0.4 0.4
v -0.5 0.4 0.3
v -0.5 0.4 0.2
v -0.5 0.4 -0.1
v -0.5 0.5 0.2
v -0.5 0.5 -0.1
v -0.5 0.6 0.5
v -0.5 0.6 0.1
v -0.5 0.6 0
v -0.5 0.6 -0.5
v -0.5 0.7 0.5
v -0.5 0.7 0.4
v -0.5 0.7 0.3
v -0.5 0.7 0.1
v -0.5 0.7 0
v -0.5 0.7 -0.1
v -0.5 0.7 -0.3
v -0.5 0.7 -0.4
v -0.5 0.8 0.4
v -0.5 0.8 0.3
v -0.5 0.8 0.1
v -0.5 0.8 0
v -0.5 0.8 -0.1
v -0.5 0.8 -0.3
v -0.5 0.8 -0.4
v -0.5 0.8 -0.5
v -0.5 1 0.5
v -0.5 1 -0.5
v 0.5 0 0.5
v 0.5 0 0.4
v 0.5 0 0.3
v 0.5 0 -0.1
v 0.5 0 -0.2
v 0.5 0 -0.5
v 0.5 0.1 0.4
v 0.5 0.1 0.3
v 0.5 0.1 -0.1
v 0.5 0.1 -0.2
v 0.5 0.1 -0.4
v 0.5 0.2 0
v 0.5 0.2 -0.1
v 0.5 0.2 -0.2
v 0.5 0.2 -0.4
v 0.5 0.3 0.2
v 0.5 0.3 0
v 0.5 0.3 -0.1
v 0.5 0.4 0.3
v 0.5 0.4 0.2
v 0.5 0.4 0
v 0.5 0.5 0.3
v 0.5 0.5 0.2
v 0.5 0.5 -0.4
v 0.5 0.5 -0.5
v 0.5 0.6 0.4
v 0.5 0.6 0.3
v 0.5 0.6 0.1
v 0.5 0.6 0
v 0.5 0.6 -0.1
v 0.5 0.6 -0.2
v 0.5 0.6 -0.4
v 0.5 0.6 -0.5
v 0.5 0.7 0.5
v 0.5 0.7 0.4
v 0.5 0.7 0.2
v 0.5 0.7 0.1
v 0.5 0.7 0
v 0.5 0.7 -0.1
v 0.5 0.7 -0.3
v 0.5 0.7 -0.4
v 0.5 0.8 0.3
v 0.5 0.8 0.2
v 0.5 0.8 -0.2
v 0.5 0.8 -0.3
v 0.5 0.8 -0.4
v 0.5 0.8 -0.5
v 0.5 1 0.5
v 0.5 1 -0.5
v -0.5 0 0.5
v -0.5 0.6 0.5
v -0.5 0.7 0.5
v -0.5 1 0.5
v -0.4 0.4 0.5
v -0.4 0.5 0.5
v -0.4 0.6 0.5
v -0.4 0.7 0.5
v -0.4 0.8 0.5
v -0.3 0.2 0.5
v -0.3 0.4 0.5
v -0.3 0.5 0.5
v -0.3 0.6 0.5
v -0.3 0.8 0.5
v -0.2 0.2 0.5
v -0.2 0.4 0.5
v -0.2 0.6 0.5
v -0.2 0.8 0.5
v -0.1 0.4 0.5
v -0.1 0.5 0.5
v -0.1 0.7 0.5
v -0.1 0.8 0.5
v 0 0.4 0.5
v 0 0.5 0.5
v 0 0.7 0.5
v 0 0.8 0.5
v 0.1 0.3 0.5
v 0.1 0.4 0.5
v 0.1 0.7 0.5
v 0.1 0.8 0.5
v 0.2 0 0.5
v 0.2 0.1 0.5
v 0.2 0.3 0.5
v 0.2 0.4 0.5
v 0.2 0.6 0.5
v 0.2 0.7 0.5
v 0.2 0.8 0.5
v 0.3 0 0.5
v 0.3 0.1 0.5
v 0.3 0.2 0.5
v 0.3 0.6 0.5
v 0.3 0.7 0.5
v 0.4 0.1 0.5
v 0.4 0.2 0.5
v 0.4 0.7 0.5
v 0.4 0.8 0.5
v 0.5 0 0.5
v 0.5 0.7 0.5
v 0.5 1 0.5
v -0.5 0 -0.5
v -0.5 0.6 -0.5
v -0.5 0.8 -0.5
v -0.5 1 -0.5
v -0.4 0.6 -0.5
v -0.4 0.8 -0.5
v -0.3 0.1 -0.5
v -0.3 0.3 -0.5
v -0.3 0.5 -0.5
v -0.3 0.6 -0.5
v -0.3 0.8 -0.5
v -0.2 0.1 -0.5
v -0.2 0.2 -0.5
v -0.2 0.5 -0.5
v -0.2 0.6 -0.5
v -0.2 0.7 -0.5
v -0.2 0.8 -0.5
v -0.1 0.2 -0.5
v -0.1 0.3 -0.5
v -0.1 0.7 -0.5
v -0.1 0.8 -0.5
v 0 0.8 -0.5
v 0 0.9 -0.5
v 0.1 0.2 -0.5
v 0.1 0.4 -0.5
v 0.1 0.6 -0.5
v 0.1 0.9 -0.5
v 0.2 0.2 -0.5
v 0.2 0.4 -0.5
v 0.2 0.6 -0.5
v 0.2 0.9 -0.5
v 0.3 0.4 -0.5
v 0.3 0.6 -0.5
v 0.3 0.7 -0.5
v 0.3 0.9 -0.5
v 0.4 0.4 -0.5
v 0.4 0.5 -0.5
v 0.4 0.7 -0.5
v 0.4 0.8 -0.5
v 0.5 0 -0.5
v 0.5 0.5 -0.5
v 0.5 0.6 -0.5
v 0.5 0.8 -0.5
v 0.5 1 -0.5
v -0.5 0 0.5
v 0.2 0 0.5
v 0.3 0 0.5
v 0.5 0 0.5
v -0.4 0 0.4
v 0.2 0 0.4
v 0.3 0 0.4
v 0.4 0 0.4
v 0.5 0 0.4
v 0.4 0 0.3
v 0.5 0 0.3
v 0.4 0 -0.1
v 0.5 0 -0.1
v 0.4 0 -0.2
v 0.5 0 -0.2
v -0.4 0 -0.4
v 0.4 0 -0.4
v -0.5 0 -0.5
v 0.5 0 -0.5
v -0.5 1 0.5
v 0.5 1 0.5
v -0.2 1 0.2
v 0 1 0.2
v 0.3 1 0.2
v 0.4 1 0.2
v -0.2 1 0.1
v 0 1 0.1
v 0.2 1 0.1
v 0.3 1 0.1
v 0.4 1 0.1
v 0.2 1 0
v 0.3 1 0
v 0.4 1 0
v -0.3 1 -0.1
v -0.2 1 -0.1
v 0.3 1 -0.1
v 0.4 1 -0.1
v -0.4 1 -0.2
v -0.3 1 -0.2
v -0.4 1 -0.3
v -0.2 1 -0.3
v -0.5 1 -0.5
v 0.5 1 -0.5

# faces
f 3/4/1 2/4/1 1/4/1
f 4/4/1 2/4/1 3/4/1
f 5/4/1 3/4/1 1/4/1
f 5/3/1 4/3/1 3/3/1
f 6/4/1 2/4/1 4/4/1
f 6/3/1 4/3/1 5/3/1
f 7/4/1 2/4/1 6/4/1
f 8/4/1 2/4/1 7/4/1
f 9/4/1 5/4/1 1/4/1
f 9/4/1 6/4/1 5/4/1
f 9/4/1 7/4/1 6/4/1
f 10/4/1 7/4/1 9/4/1
f 11/3/1 8/3/1 7/3/1
f 11/4/1 7/4/1 10/4/1
f 12/4/1 2/4/1 8/4/1
f 12/3/1 8/3/1 11/3/1
f 13/3/1 10/3/1 9/3/1
f 13/4/1 9/4/1 1/4/1
f 14/4/1 11/4/1 10/4/1
f 14/3/1 10/3/1 13/3/1
f 14/4/1 12/4/1 11/4/1
f 15/4/1 12/4/1 14/4/1
f 16/4/1 12/4/1 15/4/1
f 17/4/1 14/4/1 13/4/1
f 17/4/1 15/4/1 14/4/1
f 17/3/1 16/3/1 15/3/1
f 18/4/1 12/4/1 16/4/1
f 18/3/1 16/3/1 17/3/1
f 19/4/1 13/4/1 1/4/1
f 19/4/1 17/4/1 13/4/1
f 19/4/1 18/4/1 17/4/1
f 20/4/1 18/4/1 19/4/1
f 21/4/1 18/4/1 20/4/1
f 22/4/1 12/4/1 18/4/1
f 22/4/1 18/4/1 21/4/1
f 22/4/1 2/4/1 12/4/1
f 23/3/1 20/3/1 19/3/1
f 24/3/1 20/3/1 23/3/1
f 25/3/1 20/3/1 24/3/1
f 26/4/1 21/4/1 20/4/1
f 26/3/1 20/3/1 25/3/1
f 27/3/1 22/3/1 21/3/1
f 27/4/1 21/4/1 26/4/1
f 28/3/1 22/3/1 27/3/1
f 29/3/1 22/3/1 28/3/1
f 30/3/1 22/3/1 29/3/1
f 31/3/1 25/3/1 24/3/1
f 31/6/1 24/6/1 23/6/1
f 32/6/1 26/6/1 25/6/1
f 32/3/1 25/3/1 31/3/1
f 33/3/1 27/3/1 26/3/1
f 33/6/1 26/6/1 32/6/1
f 34/6/1 28/6/1 27/6/1
f 34/3/1 27/3/1 33/3/1
f 35/3/1 29/3/1 28/3/1
f 35/6/1 28/6/1 34/6/1
f 36/6/1 30/6/1 29/6/1
f 36/3/1 29/3/1 35/3/1
f 37/3/1 22/3/1 30/3/1
f 37/6/1 30/6/1 36/6/1
f 38/3/1 22/3/1 37/3/1
f 39/6/1 36/6/1 35/6/1
f 39/6/1 31/6/1 23/6/1
f 39/6/1 38/6/1 37/6/1
f 39/6/1 37/6/1 36/6/1
f 39/6/1 34/6/1 33/6/1
f 39/6/1 33/6/1 32/6/1
f 39/6/1 32/6/1 31/6/1
f 39/6/1 35/6/1 34/6/1
f 40/6/1 38/6/1 39/6/1
f 41/4/2 42/4/2 47/4/2
f 42/3/2 43/3/2 47/3/2
f 43/4/2 44/4/2 48/4/2
f 47/3/2 43/3/2 48/3/2
f 44/3/2 45/3/2 49/3/2
f 48/4/2 44/4/2 49/4/2
f 45/4/2 46/4/2 50/4/2
f 49/3/2 45/3/2 50/3/2
f 50/4/2 46/4/2 51/4/2
f 48/4/2 49/4/2 52/4/2
f 47/4/2 48/4/2 52/4/2
f 49/4/2 50/4/2 52/4/2
f 52/4/2 50/4/2 53/4/2
f 50/3/2 51/3/2 54/3/2
f 53/4/2 50/4/2 54/4/2
f 51/4/2 46/4/2 55/4/2
f 54/3/2 51/3/2 55/3/2
f 47/4/2 52/4/2 56/4/2
f 52/3/2 53/3/2 57/3/2
f 56/4/2 52/4/2 57/4/2
f 53/4/2 54/4/2 58/4/2
f 57/3/2 53/3/2 58/3/2
f 54/4/2 55/4/2 58/4/2
f 47/4/2 56/4/2 59/4/2
f 56/3/2 57/3/2 60/3/2
f 59/4/2 56/4/2 60/4/2
f 57/4/2 58/4/2 61/4/2
f 60/3/2 57/3/2 61/3/2
f 47/4/2 59/4/2 62/4/2
f 59/3/2 60/3/2 62/3/2
f 60/4/2 61/4/2 63/4/2
f 62/3/2 60/3/2 63/3/2
f 61/4/2 58/4/2 64/4/2
f 63/4/2 61/4/2 64/4/2
f 58/4/2 55/4/2 64/4/2
f 55/4/2 46/4/2 64/4/2
f 64/4/2 46/4/2 65/4/2
f 62/4/2 63/4/2 66/4/2
f 47/4/2 62/4/2 66/4/2
f 41/4/2 47/4/2 66/4/2
f 63/4/2 64/4/2 66/4/2
f 66/4/2 64/4/2 67/4/2
f 67/4/2 64/4/2 68/4/2
f 68/4/2 64/4/2 69/4/2
f 69/4/2 64/4/2 70/4/2
f 70/4/2 64/4/2 71/4/2
f 64/3/2 65/3/2 72/3/2
f 71/4/2 64/4/2 72/4/2
f 72/3/2 65/3/2 73/3/2
f 41/4/2 66/4/2 74/4/2
f 66/6/2 67/6/2 75/6/2
f 74/4/2 66/4/2 75/4/2
f 67/4/2 68/4/2 76/4/2
f 68/6/2 69/6/2 77/6/2
f 76/4/2 68/4/2 77/4/2
f 69/4/2 70/4/2 78/4/2
f 77/6/2 69/6/2 78/6/2
f 70/6/2 71/6/2 79/6/2
f 78/4/2 70/4/2 79/4/2
f 71/4/2 72/4/2 80/4/2
f 72/4/2 73/4/2 80/4/2
f 80/4/2 73/4/2 81/4/2
f 75/6/2 67/6/2 82/6/2
f 67/4/2 76/4/2 82/4/2
f 74/6/2 75/6/2 82/6/2
f 77/6/2 78/6/2 83/6/2
f 82/4/2 76/4/2 83/4/2
f 76/6/2 77/6/2 83/6/2
f 78/6/2 79/6/2 83/6/2
f 71/4/2 80/4/2 84/4/2
f 83/6/2 79/6/2 84/6/2
f 79/6/2 71/6/2 84/6/2
f 80/6/2 81/6/2 85/6/2
f 84/4/2 80/4/2 85/4/2
f 81/4/2 73/4/2 86/4/2
f 85/6/2 81/6/2 86/6/2
f 86/4/2 73/4/2 87/4/2
f 74/6/2 82/6/2 88/6/2
f 84/6/2 85/6/2 88/6/2
f 86/6/2 87/6/2 88/6/2
f 85/6/2 86/6/2 88/6/2
f 82/6/2 83/6/2 88/6/2
f 83/6/2 84/6/2 88/6/2
f 88/6/2 87/6/2 89/6/2
f 94/4/3 91/4/3 90/4/3
f 95/4/3 91/4/3 94/4/3
f 96/3/3 92/3/3 91/3/3
f 96/4/3 91/4/3 95/4/3
f 97/6/3 93/6/3 92/6/3
f 97/3/3 92/3/3 96/3/3
f 98/6/3 93/6/3 97/6/3
f 99/4/3 94/4/3 90/4/3
f 100/3/3 95/3/3 94/3/3
f 100/4/3 94/4/3 99/4/3
f 101/4/3 96/4/3 95/4/3
f 101/3/3 95/3/3 100/3/3
f 101/4/3 97/4/3 96/4/3
f 101/4/3 98/4/3 97/4/3
f 102/4/3 98/4/3 101/4/3
f 103/6/3 93/6/3 98/6/3
f 103/4/3 98/4/3 102/4/3
f 104/3/3 100/3/3 99/3/3
f 104/4/3 99/4/3 90/4/3
f 105/4/3 102/4/3 101/4/3
f 105/3/3 100/3/3 104/3/3
f 105/4/3 101/4/3 100/4/3
f 106/6/3 103/6/3 102/6/3
f 106/4/3 102/4/3 105/4/3
f 107/6/3 93/6/3 103/6/3
f 107/6/3 103/6/3 106/6/3
f 108/4/3 106/4/3 105/4/3
f 108/4/3 105/4/3 104/4/3
f 108/4/3 107/4/3 106/4/3
f 109/4/3 107/4/3 108/4/3
f 110/4/3 107/4/3 109/4/3
f 111/6/3 93/6/3 107/6/3
f 111/4/3 107/4/3 110/4/3
f 112/4/3 108/4/3 104/4/3
f 112/3/3 109/3/3 108/3/3
f 113/4/3 110/4/3 109/4/3
f 113/3/3 109/3/3 112/3/3
f 114/6/3 111/6/3 110/6/3
f 114/4/3 110/4/3 113/4/3
f 115/6/3 93/6/3 111/6/3
f 115/6/3 111/6/3 114/6/3
f 116/4/3 112/4/3 104/4/3
f 116/4/3 114/4/3 113/4/3
f 116/4/3 115/4/3 114/4/3
f 116/4/3 113/4/3 112/4/3
f 117/4/3 115/4/3 116/4/3
f 118/4/3 115/4/3 117/4/3
f 119/6/3 93/6/3 115/6/3
f 119/4/3 115/4/3 118/4/3
f 120/4/3 104/4/3 90/4/3
f 120/4/3 116/4/3 104/4/3
f 121/4/3 116/4/3 120/4/3
f 122/3/3 117/3/3 116/3/3
f 122/4/3 116/4/3 121/4/3
f 123/4/3 118/4/3 117/4/3
f 123/3/3 117/3/3 122/3/3
f 124/4/3 118/4/3 123/4/3
f 125/6/3 119/6/3 118/6/3
f 125/4/3 118/4/3 124/4/3
f 126/6/3 93/6/3 119/6/3
f 126/6/3 119/6/3 125/6/3
f 127/3/3 121/3/3 120/3/3
f 128/4/3 122/4/3 121/4/3
f 128/3/3 121/3/3 127/3/3
f 128/4/3 124/4/3 123/4/3
f 128/4/3 123/4/3 122/4/3
f 129/4/3 124/4/3 128/4/3
f 130/3/3 125/3/3 124/3/3
f 130/4/3 124/4/3 129/4/3
f 131/4/3 126/4/3 125/4/3
f 131/3/3 125/3/3 130/3/3
f 132/3/3 129/3/3 128/3/3
f 132/4/3 128/4/3 127/4/3
f 133/4/3 130/4/3 129/4/3
f 133/3/3 129/3/3 132/3/3
f 133/4/3 131/4/3 130/4/3
f 134/4/3 126/4/3 131/4/3
f 134/4/3 131/4/3 133/4/3
f 135/6/3 93/6/3 126/6/3
f 135/4/3 126/4/3 134/4/3
f 136/4/3 133/4/3 132/4/3
f 136/4/3 132/4/3 127/4/3
f 136/4/3 134/4/3 133/4/3
f 137/6/3 135/6/3 134/6/3
f 137/4/3 134/4/3 136/4/3
f 138/6/3 93/6/3 135/6/3
f 138/6/3 135/6/3 137/6/3
f 139/4/4 140/4/4 143/4/4
f 140/3/4 141/3/4 143/3/4
f 141/6/4 142/6/4 144/6/4
f 143/3/4 141/3/4 144/3/4
f 139/4/4 143/4/4 145/4/4
f 145/4/4 143/4/4 146/4/4
f 146/4/4 143/4/4 147/4/4
f 143/6/4 144/6/4 148/6/4
f 147/4/4 143/4/4 148/4/4
f 144/6/4 142/6/4 149/6/4
f 148/6/4 144/6/4 149/6/4
f 139/4/4 145/4/4 150/4/4
f 145/3/4 146/3/4 150/3/4
f 150/3/4 146/3/4 151/3/4
f 147/3/4 148/3/4 152/3/4
f 146/4/4 147/4/4 152/4/4
f 148/4/4 149/4/4 153/4/4
f 152/3/4 148/3/4 153/3/4
f 153/4/4 149/4/4 154/4/4
f 149/6/4 142/6/4 155/6/4
f 154/4/4 149/4/4 155/4/4
f 151/3/4 146/3/4 156/3/4
f 150/4/4 151/4/4 156/4/4
f 153/4/4 154/4/4 157/4/4
f 156/3/4 146/3/4 157/3/4
f 146/4/4 152/4/4 157/4/4
f 152/4/4 153/4/4 157/4/4
f 154/6/4 155/6/4 158/6/4
f 157/4/4 154/4/4 158/4/4
f 155/6/4 142/6/4 159/6/4
f 158/6/4 155/6/4 159/6/4
f 157/4/4 158/4/4 160/4/4
f 159/6/4 142/6/4 160/6/4
f 158/4/4 159/4/4 160/4/4
f 156/4/4 157/4/4 160/4/4
f 160/6/4 142/6/4 161/6/4
f 150/4/4 156/4/4 162/4/4
f 156/4/4 160/4/4 162/4/4
f 160/4/4 161/4/4 162/4/4
f 162/4/4 161/4/4 163/4/4
f 163/4/4 161/4/4 164/4/4
f 161/6/4 142/6/4 165/6/4
f 164/4/4 161/4/4 165/4/4
f 150/4/4 162/4/4 166/4/4
f 162/3/4 163/3/4 166/3/4
f 163/4/4 164/4/4 167/4/4
f 166/3/4 163/3/4 167/3/4
f 164/6/4 165/6/4 168/6/4
f 167/4/4 164/4/4 168/4/4
f 165/6/4 142/6/4 169/6/4
f 168/6/4 165/6/4 169/6/4
f 167/4/4 168/4/4 170/4/4
f 166/4/4 167/4/4 170/4/4
f 168/4/4 169/4/4 170/4/4
f 170/4/4 169/4/4 171/4/4
f 171/4/4 169/4/4 172/4/4
f 169/6/4 142/6/4 173/6/4
f 172/4/4 169/4/4 173/4/4
f 166/4/4 170/4/4 174/4/4
f 170/3/4 171/3/4 174/3/4
f 174/3/4 171/3/4 175/3/4
f 171/4/4 172/4/4 176/4/4
f 172/6/4 173/6/4 176/6/4
f 176/6/4 173/6/4 177/6/4
f 139/4/4 150/4/4 178/4/4
f 150/4/4 166/4/4 178/4/4
f 174/4/4 175/4/4 178/4/4
f 166/4/4 174/4/4 178/4/4
f 175/3/4 171/3/4 179/3/4
f 178/4/4 175/4/4 179/4/4
f 176/4/4 177/4/4 180/4/4
f 179/3/4 171/3/4 180/3/4
f 171/4/4 176/4/4 180/4/4
f 177/6/4 173/6/4 181/6/4
f 180/4/4 177/4/4 181/4/4
f 173/6/4 142/6/4 182/6/4
f 181/6/4 173/6/4 182/6/4
f 187/4/5 184/4/5 183/4/5
f 188/3/5 185/3/5 184/3/5
f 188/4/5 184/4/5 187/4/5
f 189/4/5 186/4/5 185/4/5
f 189/3/5 185/3/5 188/3/5
f 190/4/5 186/4/5 189/4/5
f 191/4/5 186/4/5 190/4/5
f 192/6/5 188/6/5 187/6/5
f 192/6/5 189/6/5 188/6/5
f 192/3/5 191/3/5 190/3/5
f 192/6/5 190/6/5 189/6/5
f 193/3/5 191/3/5 192/3/5
f 194/6/5 192/6/5 187/6/5
f 194/4/5 193/4/5 192/4/5
f 195/4/5 193/4/5 194/4/5
f 196/6/5 194/6/5 187/6/5
f 196/3/5 195/3/5 194/3/5
f 197/3/5 195/3/5 196/3/5
f 198/4/5 187/4/5 183/4/5
f 198/6/5 196/6/5 187/6/5
f 199/4/5 197/4/5 196/4/5
f 199/6/5 196/6/5 198/6/5
f 200/4/5 198/4/5 183/4/5
f 200/4/5 199/4/5 198/4/5
f 201/4/5 197/4/5 199/4/5
f 201/4/5 199/4/5 200/4/5
f 202/6/6 203/6/6 204/6/6
f 204/6/6 203/6/6 205/6/6
f 205/6/6 203/6/6 206/6/6
f 206/6/6 203/6/6 207/6/6
f 202/6/6 204/6/6 208/6/6
f 204/5/6 205/5/6 208/5/6
f 205/6/6 206/6/6 209/6/6
f 208/5/6 205/5/6 209/5/6
f 209/6/6 206/6/6 210/6/6
f 206/5/6 207/5/6 211/5/6
f 210/6/6 206/6/6 211/6/6
f 207/6/6 203/6/6 212/6/6
f 211/5/6 207/5/6 212/5/6
f 210/5/6 211/5/6 213/5/6
f 209/6/6 210/6/6 213/6/6
f 208/6/6 209/6/6 213/6/6
f 211/6/6 212/6/6 214/6/6
f 213/5/6 211/5/6 214/5/6
f 212/6/6 203/6/6 215/6/6
f 214/6/6 212/6/6 215/6/6
f 213/6/6 214/6/6 216/6/6
f 208/6/6 213/6/6 216/6/6
f 202/6/6 208/6/6 216/6/6
f 216/6/6 214/6/6 217/6/6
f 214/5/6 215/5/6 218/5/6
f 217/6/6 214/6/6 218/6/6
f 215/6/6 203/6/6 219/6/6
f 218/5/6 215/5/6 219/5/6
f 202/6/6 216/6/6 220/6/6
f 216/5/6 217/5/6 221/5/6
f 220/6/6 216/6/6 221/6/6
f 202/6/6 220/6/6 222/6/6
f 220/5/6 221/5/6 222/5/6
f 217/6/6 218/6/6 223/6/6
f 222/5/6 221/5/6 223/5/6
f 221/5/6 217/5/6 223/5/6
f 218/6/6 219/6/6 223/6/6
f 202/6/6 222/6/6 224/6/6
f 222/6/6 223/6/6 224/6/6
f 223/6/6 219/6/6 225/6/6
f 224/6/6 223/6/6 225/6/6
f 219/6/6 203/6/6 225/6/6
